<?xml version="1.0" encoding="UTF-8" standalone="no"?>
<!-- Created with Inkscape (http://www.inkscape.org/) -->

<svg
   width="1024px"
   height="1024px"
   viewBox="0 0 1024 1024"
   version="1.1"
   id="SVGRoot"
   sodipodi:docname="logo.svg"
   inkscape:version="1.2.2 (b0a8486541, 2022-12-01)"
   inkscape:export-filename="logo.png"
   inkscape:export-xdpi="96"
   inkscape:export-ydpi="96"
   xmlns:inkscape="http://www.inkscape.org/namespaces/inkscape"
   xmlns:sodipodi="http://sodipodi.sourceforge.net/DTD/sodipodi-0.dtd"
   xmlns="http://www.w3.org/2000/svg"
   xmlns:svg="http://www.w3.org/2000/svg">
  <sodipodi:namedview
     id="namedview137"
     pagecolor="#ffffff"
     bordercolor="#000000"
     borderopacity="0.25"
     inkscape:showpageshadow="2"
     inkscape:pageopacity="0.0"
     inkscape:pagecheckerboard="0"
     inkscape:deskcolor="#d1d1d1"
     inkscape:document-units="px"
     showgrid="false"
     inkscape:zoom="0.41084595"
     inkscape:cx="377.27036"
     inkscape:cy="376.05336"
     inkscape:window-width="1920"
     inkscape:window-height="1003"
     inkscape:window-x="0"
     inkscape:window-y="0"
     inkscape:window-maximized="1"
     inkscape:current-layer="layer1" />
  <defs
     id="defs132" />
  <g
     inkscape:label="Layer 1"
     inkscape:groupmode="layer"
     id="layer1"
     sodipodi:insensitive="true">
    <circle
       style="opacity:1;fill:#b7c3f3;fill-opacity:1;stroke:none;stroke-width:7.28738;stroke-linejoin:round"
       id="path368"
       cx="512"
       cy="512"
       r="512" />
  </g>
  <g
     inkscape:groupmode="layer"
     id="layer2"
     inkscape:label="Layer 2">
    <path
       id="path1138"
       style="opacity:1;fill:#121212;fill-opacity:1;stroke:none;stroke-width:3.19947;stroke-linejoin:round"
       d="M 512 118.60742 A 400 400 0 0 0 112 518.60742 A 400 400 0 0 0 245.20312 816.05469 L 245.20312 384.26367 L 298.97656 384.26367 L 298.97656 856.875 A 400 400 0 0 0 365.76172 889.89258 L 365.76172 559.93164 L 419.53516 559.93164 L 419.53516 906.80469 A 400 400 0 0 0 488.96484 916.96094 L 488.96484 428.75586 L 542.73633 428.75586 L 542.73633 916.41016 A 400 400 0 0 0 610.58398 905.47461 L 610.58398 267.45898 L 664.35742 267.45898 L 664.35742 887.61133 A 400 400 0 0 0 729.33594 854.30078 L 729.33594 414.88477 L 783.10938 414.88477 L 783.10938 811.74219 A 400 400 0 0 0 912 518.60742 A 400 400 0 0 0 512 118.60742 z " />
  </g>
</svg>
